# xmcd
#
# Track frame offsets: 
#        150
#        21132
#        38950
#        61760
#        78672
#        100927
#        123352
#        142127
#        156890
#        178532
#        197920
#        215645
#        238065
#        256410
#
# Disc length: 3658 seconds
#
# Revision: 0
# Processed by: cddbd v1.4PL0 Copyright (c) Steve Scherf et al.
# Submitted via: ExactAudioCopy v0.90a11
#
DISCID=ca0e480e
DTITLE=Roupa Nova - Agora Sim
DYEAR=1900
DGENRE=
TTITLE0=Agora Sim
TTITLE1=Anjo
TTITLE2=Volta pra mim
TTITLE3=Clarear
TTITLE4=Coracao pirata
TTITLE5=Meu universo eh voce
TTITLE6=Quando bate uma saudade
TTITLE7=Bem Simples
TTITLE8=Seguindo no trem azul
TTITLE9=Whisky a go go
TTITLE10=Dona
TTITLE11=Linda Demais
TTITLE12=Bem Maior
TTITLE13=Deixa o amor acontecer
EXTD=
EXTT0=
EXTT1=
EXTT2=
EXTT3=
EXTT4=
EXTT5=
EXTT6=
EXTT7=
EXTT8=
EXTT9=
EXTT10=
EXTT11=
EXTT12=
EXTT13=
PLAYORDER=
